<?xml version="1.0" encoding="utf-8"?>
<!-- Generator: Adobe Illustrator 24.2.3, SVG Export Plug-In . SVG Version: 6.00 Build 0)  -->
<svg version="1.1" id="Layer_1" xmlns="http://www.w3.org/2000/svg" xmlns:xlink="http://www.w3.org/1999/xlink" x="0px" y="0px"
	 viewBox="0 0 1920 1080" style="enable-background:new 0 0 1920 1080;" xml:space="preserve">
<style type="text/css">
	.st0{fill:#FFFFFF;}
	.st1{fill:#ECEDED;}
	.st2{fill:#E2E3E3;}
	.st3{fill:#231F20;}
	.st4{fill:#5ED9E7;}
	.st5{fill:#414042;}
	.st6{fill:#E33768;}
	.st7{fill:#C4305A;}
	.st8{fill:#E7E8E8;}
	.st9{fill:#BF2E58;}
	.st10{fill:#58595B;}
	.st11{fill:#6D6E71;}
	.st12{fill:#373638;}
	.st13{fill:#010102;}
	.st14{fill:#BCBEC0;}
	.st15{fill:#939598;}
	.st16{fill:#FCCA21;}
	.st17{fill:#FC9D21;}
	.st18{fill:#FCB621;}
	.st19{fill:#BBBDBF;}
	.st20{fill:#3E8D96;}
	.st21{fill:#51BBC4;}
	.st22{fill:#4AAAB5;}
	.st23{fill:#5AD0DE;}
	.st24{fill:#67EFFF;}
	.st25{fill:#FCB121;}
	.st26{fill:#FCAF21;}
	.st27{fill:#FC9621;}
	.st28{fill:#FCD921;}
	.st29{fill:#FCBB21;}
	.st30{fill:#1A1617;}
	.st31{fill:#B1B3B5;}
	.st32{fill:#989A9C;}
	.st33{fill:#D4D6D9;}
	.st34{fill:#ACAEB0;}
	.st35{fill:#A7A9AB;}
	.st36{fill:#F5F6F7;}
	.st37{fill:#DEE0E3;}
	.st38{fill:#BA2D55;}
	.st39{fill:#CFD2D4;}
</style>
<g>
	<g>
		<rect class="st0" width="1920" height="1080"/>
	</g>
	<g>
		<g>
			<g>
				<path class="st1" d="M348.62,950.15c203.03,31.89,285.22-38.8,484.34-45.3c176.68-5.76,279.65,68.61,431.86,75.44
					c272.64,12.24,330.76-141.1,330.76-141.1s173.77,24.92,206.61-219.82c16.46-122.71-46.98-236.41-115.89-249.02
					c0,0,61.48-145.86-97.08-193.41c-151.23-45.35-289.65,48.85-489.23,24.39c-204.7-25.09-443.89-177.08-672.54-67.47
					C249.1,219.35,298.87,399.95,298.87,399.95S149.65,438.17,120.1,612.91C94.69,763.15,167.1,921.64,348.62,950.15z"/>
			</g>
		</g>
		<g>
			<path class="st1" d="M1077.76,122.98c-29.83,30.81,12.35,70.44,111.13,62.46c92.24-7.45,115.74-38.97,97.42-58.16
				C1258.74,98.38,1114.38,85.16,1077.76,122.98z"/>
		</g>
		<g>
			<path class="st1" d="M208.68,323.92c-37.09,25.39-50.83,104.67,16.49,89.39C300.55,396.21,292.9,266.27,208.68,323.92z"/>
		</g>
		<g>
			<path class="st1" d="M1625.32,858.92c-45.4,11.2-73.1,81.16-29.91,92.39C1661.11,968.4,1712.74,837.34,1625.32,858.92z"/>
		</g>
		<g>
			<path class="st1" d="M813.98,927.08c-47.51,10.6-90.79,46.44-16.51,68.14s179.78-1.22,179.78-33.48
				C977.25,939.7,894.43,909.14,813.98,927.08z"/>
		</g>
	</g>
	<g>
		<g>
			<g>
				<path class="st1" d="M348.62,950.15c203.03,31.89,285.22-38.8,484.34-45.3c176.68-5.76,279.65,68.61,431.86,75.44
					c272.64,12.24,330.76-141.1,330.76-141.1s173.77,24.92,206.61-219.82c16.46-122.71-46.98-236.41-115.89-249.02
					c0,0,61.48-145.86-97.08-193.41c-151.23-45.35-289.65,48.85-489.23,24.39c-204.7-25.09-443.89-177.08-672.54-67.47
					C249.1,219.35,298.87,399.95,298.87,399.95S149.65,438.17,120.1,612.91C94.69,763.15,167.1,921.64,348.62,950.15z"/>
			</g>
		</g>
		<g>
			<path class="st1" d="M1077.76,122.98c-29.83,30.81,12.35,70.44,111.13,62.46c92.24-7.45,115.74-38.97,97.42-58.16
				C1258.74,98.38,1114.38,85.16,1077.76,122.98z"/>
		</g>
		<g>
			<path class="st1" d="M208.68,323.92c-37.09,25.39-50.83,104.67,16.49,89.39C300.55,396.21,292.9,266.27,208.68,323.92z"/>
		</g>
		<g>
			<path class="st1" d="M1625.32,858.92c-45.4,11.2-73.1,81.16-29.91,92.39C1661.11,968.4,1712.74,837.34,1625.32,858.92z"/>
		</g>
		<g>
			<path class="st1" d="M813.98,927.08c-47.51,10.6-90.79,46.44-16.51,68.14s179.78-1.22,179.78-33.48
				C977.25,939.7,894.43,909.14,813.98,927.08z"/>
		</g>
	</g>
	<g>
		<g>
			<g>
				<path class="st1" d="M348.62,950.15c203.03,31.89,285.22-38.8,484.34-45.3c176.68-5.76,279.65,68.61,431.86,75.44
					c272.64,12.24,330.76-141.1,330.76-141.1s173.77,24.92,206.61-219.82c16.46-122.71-46.98-236.41-115.89-249.02
					c0,0,61.48-145.86-97.08-193.41c-151.23-45.35-289.65,48.85-489.23,24.39c-204.7-25.09-443.89-177.08-672.54-67.47
					C249.1,219.35,298.87,399.95,298.87,399.95S149.65,438.17,120.1,612.91C94.69,763.15,167.1,921.64,348.62,950.15z"/>
			</g>
		</g>
		<g>
			<path class="st1" d="M1077.76,122.98c-29.83,30.81,12.35,70.44,111.13,62.46c92.24-7.45,115.74-38.97,97.42-58.16
				C1258.74,98.38,1114.38,85.16,1077.76,122.98z"/>
		</g>
		<g>
			<path class="st1" d="M208.68,323.92c-37.09,25.39-50.83,104.67,16.49,89.39C300.55,396.21,292.9,266.27,208.68,323.92z"/>
		</g>
		<g>
			<path class="st1" d="M1625.32,858.92c-45.4,11.2-73.1,81.16-29.91,92.39C1661.11,968.4,1712.74,837.34,1625.32,858.92z"/>
		</g>
		<g>
			<path class="st1" d="M813.98,927.08c-47.51,10.6-90.79,46.44-16.51,68.14s179.78-1.22,179.78-33.48
				C977.25,939.7,894.43,909.14,813.98,927.08z"/>
		</g>
	</g>
	<g>
		<g>
			<g>
				<path class="st1" d="M348.62,950.15c203.03,31.89,285.22-38.8,484.34-45.3c176.68-5.76,279.65,68.61,431.86,75.44
					c272.64,12.24,330.76-141.1,330.76-141.1s173.77,24.92,206.61-219.82c16.46-122.71-46.98-236.41-115.89-249.02
					c0,0,61.48-145.86-97.08-193.41c-151.23-45.35-289.65,48.85-489.23,24.39c-204.7-25.09-443.89-177.08-672.54-67.47
					C249.1,219.35,298.87,399.95,298.87,399.95S149.65,438.17,120.1,612.91C94.69,763.15,167.1,921.64,348.62,950.15z"/>
			</g>
		</g>
		<g>
			<g>
				<path class="st1" d="M348.62,950.15c203.03,31.89,285.22-38.8,484.34-45.3c176.68-5.76,279.65,68.61,431.86,75.44
					c272.64,12.24,330.76-141.1,330.76-141.1s173.77,24.92,206.61-219.82c16.46-122.71-46.98-236.41-115.89-249.02
					c0,0,61.48-145.86-97.08-193.41c-151.23-45.35-289.65,48.85-489.23,24.39c-204.7-25.09-443.89-177.08-672.54-67.47
					C249.1,219.35,298.87,399.95,298.87,399.95S149.65,438.17,120.1,612.91C94.69,763.15,167.1,921.64,348.62,950.15z"/>
			</g>
		</g>
		<g>
			<g>
				<path class="st1" d="M348.62,950.15c203.03,31.89,285.22-38.8,484.34-45.3c176.68-5.76,279.65,68.61,431.86,75.44
					c272.64,12.24,330.76-141.1,330.76-141.1s173.77,24.92,206.61-219.82c16.46-122.71-46.98-236.41-115.89-249.02
					c0,0,61.48-145.86-97.08-193.41c-151.23-45.35-289.65,48.85-489.23,24.39c-204.7-25.09-443.89-177.08-672.54-67.47
					C249.1,219.35,298.87,399.95,298.87,399.95S149.65,438.17,120.1,612.91C94.69,763.15,167.1,921.64,348.62,950.15z"/>
			</g>
		</g>
		<g>
			<path class="st1" d="M1077.76,122.98c-29.83,30.81,12.35,70.44,111.13,62.46c92.24-7.45,115.74-38.97,97.42-58.16
				C1258.74,98.38,1114.38,85.16,1077.76,122.98z"/>
		</g>
		<g>
			<path class="st1" d="M208.68,323.92c-37.09,25.39-50.83,104.67,16.49,89.39C300.55,396.21,292.9,266.27,208.68,323.92z"/>
		</g>
		<g>
			<path class="st1" d="M1625.32,858.92c-45.4,11.2-73.1,81.16-29.91,92.39C1661.11,968.4,1712.74,837.34,1625.32,858.92z"/>
		</g>
		<g>
			<path class="st1" d="M813.98,927.08c-47.51,10.6-90.79,46.44-16.51,68.14s179.78-1.22,179.78-33.48
				C977.25,939.7,894.43,909.14,813.98,927.08z"/>
		</g>
	</g>
	<g>
		<path class="st0" d="M178.11,770.28c-6.35-0.54-12.84-1.49-19.28-2.82l0.6-2.94c6.33,1.3,12.7,2.24,18.93,2.77L178.11,770.28z"/>
	</g>
	<g>
		<path class="st0" d="M140.91,759.65c-5.02-1.61-10.07-3.47-15.04-5.53c0.33,1.22,0.65,2.44,0.99,3.65
			c4.36,1.74,8.75,3.34,13.14,4.74L140.91,759.65z"/>
	</g>
	<g>
		<g>
			<path class="st0" d="M197.61,770.72l-0.13-3c6.39-0.27,12.78-0.97,18.99-2.09l0.53,2.95
				C210.66,769.73,204.13,770.45,197.61,770.72z M235.91,763.81l-0.93-2.85c5.99-1.96,11.94-4.38,17.7-7.18l1.31,2.7
				C248.11,759.34,242.03,761.8,235.91,763.81z M270.94,746.86l-1.64-2.51c5.22-3.41,10.4-7.23,15.39-11.37l1.91,2.31
				C281.52,739.49,276.25,743.39,270.94,746.86z"/>
		</g>
	</g>
	<g>
		<g>
			<path class="st0" d="M300.97,722.08l-2.13-2.11c3.41-3.46,6.81-7.14,10.09-10.96l0.69-0.8l0.99,0.38c0.05,0.02,5.2,2,14.15,4.49
				l-0.8,2.89c-6.91-1.92-11.52-3.52-13.44-4.21C307.4,715.35,304.19,718.82,300.97,722.08z"/>
		</g>
	</g>
	<g>
		<g>
			<path class="st0" d="M388.76,726.39c-10.86-0.56-21.85-1.73-32.68-3.46l0.47-2.96c10.72,1.71,21.61,2.87,32.36,3.43
				L388.76,726.39z M421.62,726.28l-0.18-2.99c10.92-0.66,21.78-1.96,32.28-3.88l0.54,2.95
				C443.64,724.3,432.66,725.62,421.62,726.28z"/>
		</g>
	</g>
	<g>
		<g>
			<path class="st0" d="M486.19,714.4l-0.91-2.86c10.32-3.3,20.49-7.31,30.22-11.92l1.28,2.71
				C506.93,707,496.63,711.06,486.19,714.4z M545.49,686.3l-1.63-2.52c1.25-0.81,2.49-1.63,3.73-2.47
				c7.83-5.29,15.03-11.29,21.4-17.82l2.15,2.09c-6.51,6.68-13.86,12.81-21.87,18.21C548.01,684.65,546.75,685.48,545.49,686.3z
				 M590.99,639.23l-2.6-1.49c5.27-9.22,9.47-19.23,12.47-29.77l2.88,0.82C600.67,619.56,596.38,629.8,590.99,639.23z
				 M609.26,576.28l-2.99-0.18c0.2-3.24,0.3-6.54,0.3-9.8c0-7.51-0.53-15.09-1.57-22.54l2.97-0.42c1.06,7.59,1.6,15.31,1.6,22.96
				C609.56,569.62,609.46,572.98,609.26,576.28z M597.22,512.37c-4.06-11.02-9.32-20.8-15.21-28.29l2.36-1.86
				c6.09,7.74,11.51,17.8,15.67,29.11L597.22,512.37z M559.06,461.23c-8.15-7.04-16.88-13.62-25.94-19.56l1.65-2.51
				c9.17,6.02,18.01,12.68,26.26,19.8L559.06,461.23z M504.86,425.61c-9.59-4.68-19.69-8.87-30.03-12.46l0.99-2.83
				c10.45,3.63,20.66,7.87,30.36,12.6L504.86,425.61z M443.56,404.19c-10.37-2.38-21.16-4.28-32.05-5.65l0.37-2.98
				c10.99,1.38,21.88,3.3,32.35,5.7L443.56,404.19z M346.47,396.28l-0.15-3c11.01-0.56,22.1-0.66,32.83-0.3l-0.1,3
				C368.4,395.62,357.4,395.72,346.47,396.28z"/>
		</g>
	</g>
	<g>
		<path class="st0" d="M313.07,397.87l-0.39-2.97c-4.8,0.63-9.68,1.35-14.53,2.15c0.44,1.9,0.72,2.91,0.72,2.91
			s-0.04,0.01-0.11,0.03C303.53,399.2,308.34,398.48,313.07,397.87z"/>
	</g>
	<g>
		<path class="st0" d="M458.32,515.49c15.79-6.72,11.65-23.56-4.04-25.73c-14.51-2-24.08,6.1-24.08,6.1s-1.01-30.91-30.07-29.57
			s-21.34,31.58-21.34,31.58s-15.89-14.45-29.95-3.36c-14.06,11.09,4.42,24.53,4.42,24.53s-15.54-10.75-25.07-2.02
			c-9.54,8.74,24.48,12.2,81.59,11.6C490.91,527.78,458.32,515.49,458.32,515.49z"/>
	</g>
	<g>
		<ellipse class="st2" cx="792.17" cy="859.11" rx="221.6" ry="17.46"/>
	</g>
	<g>
		<ellipse class="st2" cx="448.59" cy="825.69" rx="196.35" ry="17.19"/>
	</g>
	<g>
		<g>
			<polygon class="st3" points="592.74,272.99 585.31,247.85 586.17,247.59 593.4,272.02 622.02,269.27 622.5,244.13 623.4,244.15 
				622.91,270.09 			"/>
		</g>
		<g>
			<path class="st3" d="M600.27,274.01c0,0-1.81-13.08,6.02-14.94c7.83-1.86,10.31,15.3,10.31,15.3L600.27,274.01z"/>
		</g>
		<g>
			<path class="st4" d="M585.82,53.31c-36.66,3.53-83.42,28.45-76.2,86.3c7.22,57.85,76.12,108.11,76.12,108.11l18.61-1.79
				l18.61-1.79c0,0,58.06-62.47,54.12-120.63C673.14,65.35,622.49,49.79,585.82,53.31z"/>
		</g>
		<g>
			<polygon class="st5" points="592.33,271.6 598.68,301.22 610.24,300.11 622.15,298.97 622.96,268.66 			"/>
		</g>
		<g>
			<path class="st6" d="M509.62,139.61c7.22,57.85,76.12,108.11,76.12,108.11l10.1-0.97c-8.13-11.44-51.89-74.7-55.87-116.13
				c-4.39-45.69,33.05-66.97,33.05-66.97l1.64-0.16l1.76-4.62l-2.54-3.7C539.84,62.5,503.17,87.91,509.62,139.61z"/>
		</g>
		<g>
			<path class="st6" d="M615.68,244.84l7.26-0.7c0,0,58.06-62.47,54.12-120.63c-3.45-50.94-42.73-69.2-77.06-70.59l1.6,6.6
				c0,0,43.73,17.33,47.26,70.29C651.76,173.26,625.29,226.95,615.68,244.84z"/>
		</g>
		<g>
			<path class="st6" d="M591.85,64.33l-5.19-1.16L582,65.28c0,0-22.12,37.71-14.55,87.4c6.32,41.51,28.56,81.37,35.7,93.37
				l1.18-0.11l7.65-0.74C617.49,222.44,642.18,107.41,591.85,64.33z"/>
		</g>
		<g>
			<path class="st6" d="M591.85,64.33l-5.19-1.16L582,65.28c0,0-22.12,37.71-14.55,87.4c6.32,41.51,28.56,81.37,35.7,93.37
				l1.18-0.11l7.65-0.74C617.49,222.44,642.18,107.41,591.85,64.33z"/>
		</g>
		<g>
			<path class="st7" d="M562.29,58.37c-1.36,2.49-1.63,5.36,1.06,8.15c7.06,7.33,48.41,6.67,48.11-7.94
				c-0.04-1.76-0.31-3.31-0.74-4.67c-8.54-1.23-17.04-1.35-24.89-0.6C578.22,54.04,570.19,55.7,562.29,58.37z"/>
		</g>
		<g>
			<path class="st8" d="M523.86,83.89c-10.96,13.48-17.23,31.78-14.24,55.72c7.22,57.85,76.12,108.11,76.12,108.11l18.61-1.79
				l18.61-1.79c0,0,13.7-14.74,27.33-36.56C583.92,209.55,525.38,140.38,523.86,83.89z"/>
		</g>
	</g>
	<g>
		<g>
			<path class="st6" d="M406,824.67c0,0,23.85-53.79,65.99-53.6c42.14,0.19,76.21,54.25,76.21,54.25l-6.5-73.63l-129.16-3.8
				l-15.09,35.2L406,824.67z"/>
		</g>
		<g>
			<path class="st9" d="M412.54,747.89l-15.09,35.2l8.55,41.57c0,0,8.97-20.19,25.6-35.79l6.89-40.22L412.54,747.89z"/>
		</g>
		<g>
			<path class="st9" d="M543.03,766.74l-6.62-15.21l-21-0.62l11.3,48.17c13.3,13.26,21.49,26.24,21.49,26.24L543.03,766.74z"/>
		</g>
		<g>
			<path class="st6" d="M628.13,825.69c0,0-78.33-99.92-106.36-228.92c-39.42-181.42-27.26-333-27.26-333l-13.77-0.06l-2.11-0.01
				l-13.77-0.06c0,0,10.77,151.69-30.32,332.74C405.32,725.11,326.07,824.3,326.07,824.3l79.93,0.37
				c53.91-108.97,69.04-330.46,73.22-460.15c2.98,129.72,16.08,351.34,68.99,460.8L628.13,825.69z"/>
		</g>
		<g>
			<polygon class="st6" points="469.4,236.47 470.75,193.42 487.01,193.49 489.55,237.71 469.4,237.61 			"/>
		</g>
		<g>
			<g>
				<path class="st9" d="M448.05,685.45c1.26-6.51,2.48-13.06,3.64-19.7l-38.16-0.18l0,0c-2.18,5.76-4.43,11.39-6.72,16.93
					L448.05,685.45z"/>
			</g>
			<g>
				<path class="st9" d="M543.94,670.97l-39.67-3.23c1.24,7.43,2.55,14.76,3.91,22.02l44.55,3.19
					C549.72,685.82,546.78,678.49,543.94,670.97z"/>
			</g>
		</g>
		<g>
			<g>
				<path class="st9" d="M510.51,537.95l-22.16-0.1c0.6,6.89,1.24,13.81,1.9,20.73l24.63,4.15
					C513.33,554.38,511.87,546.12,510.51,537.95z"/>
			</g>
			<g>
				<path class="st9" d="M466.81,554.63c0.58-5.64,1.14-11.26,1.68-16.87l-22.16-0.1c-0.76,4.35-1.56,8.72-2.38,13.12L466.81,554.63
					z"/>
			</g>
		</g>
		<g>
			<path class="st9" d="M493.58,280.53c0.46-10.85,0.93-16.77,0.93-16.77l-13.77-0.06l-2.11-0.01l-13.77-0.06
				c0,0,0.25,3.52,0.53,10.08C471.17,277.4,480.39,281.06,493.58,280.53z"/>
		</g>
		<g>
			
				<ellipse transform="matrix(0.3824 -0.924 0.924 0.3824 67.7296 594.5106)" class="st6" cx="478.59" cy="246.59" rx="23.59" ry="23.59"/>
		</g>
		<g>
			<g>
				<path class="st9" d="M450.5,512.41c-0.61,3.95-1.25,7.93-1.91,11.93l5.61,4.31l15.18-0.51c0.45-4.94,0.88-9.86,1.3-14.77
					L450.5,512.41z"/>
			</g>
			<g>
				<path class="st9" d="M506.93,515.09l-20.49-0.98c0.34,4.46,0.69,8.92,1.06,13.41l21.23-0.71
					C508.1,522.89,507.5,518.97,506.93,515.09z"/>
			</g>
		</g>
		<g>
			<g>
				<path class="st9" d="M530.88,632.25l-32.36-2.47c0.87,6.29,1.76,12.55,2.7,18.76l10.76-0.22l22.5-4.39
					C533.24,640.07,532.04,636.18,530.88,632.25z"/>
			</g>
			<g>
				<path class="st9" d="M427.27,624.33c-1.96,6.77-4.03,13.46-6.21,20.01l30.7,5.22l2.66-0.05c1.22-7.55,2.37-15.18,3.48-22.84
					L427.27,624.33z"/>
			</g>
		</g>
		<g>
			<polygon class="st6" points="444.15,549.69 437.42,517.13 521.69,520.72 512.58,550 			"/>
		</g>
		<g>
			<polygon class="st6" points="398.15,630.04 409.3,676.45 548.43,682.55 558.73,636.33 			"/>
		</g>
	</g>
	<g>
		<g>
			
				<ellipse transform="matrix(0.9874 -0.1581 0.1581 0.9874 -120.7298 125.3019)" class="st3" cx="727.45" cy="821.72" rx="43.29" ry="43.29"/>
		</g>
		<g>
			<path class="st10" d="M659.28,772.84c0,0,4.73,26.94,33.01,58.91c29.05,32.85,71.64,14.39,66.37-15.97
				c-5.18-29.83-40.16-17.55-46.14-23.42c-4.92-4.83-10.88-9.9-15.26-22.36h-16.33h-17.39L659.28,772.84z"/>
		</g>
		<g>
			<circle class="st11" cx="727.45" cy="821.72" r="16.24"/>
		</g>
		<g>
			<path class="st12" d="M702.99,781.68c-1.81-2.69-3.56-5.95-5.12-10.05l-0.25-0.22l-7.11-1.4h-9.57h-17.39l-4.26,2.84
				c0,0,1.12,6.36,5.51,16.55l38.2-7.7L702.99,781.68z"/>
		</g>
		<g>
			<circle class="st3" cx="924.13" cy="821.72" r="43.29"/>
		</g>
		<g>
			<path class="st10" d="M992.3,772.84c0,0-4.73,26.94-33.01,58.91c-29.05,32.85-71.64,14.39-66.37-15.97
				c5.18-29.83,40.16-17.55,46.14-23.42c4.92-4.83,10.88-9.9,15.26-22.36h16.33h17.39L992.3,772.84z"/>
		</g>
		<g>
			<circle class="st11" cx="924.13" cy="821.72" r="16.24"/>
		</g>
		<g>
			<path class="st12" d="M948.63,781.63l39.11,5.51c3.6-8.87,4.56-14.3,4.56-14.3l-4.26-2.84h-17.39h-5l-3.46,0.28l-8.44,1.27
				C952.18,775.66,950.44,778.93,948.63,781.63z"/>
		</g>
		<g>
			<path class="st5" d="M651.18,758.61l4.5,20.11h48.62l17.03-33.01L683,740.2c0,0-8.87,0.9-11.36,3.38
				C669.16,746.07,651.18,758.61,651.18,758.61z"/>
		</g>
		<g>
			<path class="st5" d="M1000.4,758.61l-4.5,20.11h-48.62l-17.04-33.01l38.33-5.51c0,0,8.87,0.9,11.36,3.38
				C982.42,746.07,1000.4,758.61,1000.4,758.61z"/>
		</g>
		<g>
			<path class="st10" d="M654.26,423.11c0,0-34.78,23.66-35.49,84.23c-0.71,60.57,39.04,89.67,39.04,89.67v-23.42
				c0,0-24.14-31.23-21.65-74.53c2.49-43.3,25.2-63.17,25.2-63.17L654.26,423.11z"/>
		</g>
		<g>
			<polygon class="st13" points="768.06,257.96 789.35,244.71 792.17,260.33 778,260.33 			"/>
		</g>
		<g>
			<polygon class="st13" points="877.37,260.33 877.37,244.71 902.45,260.33 			"/>
		</g>
		<g>
			<polygon class="st14" points="745.82,260.33 741.56,122.63 761.44,122.63 763.33,262.7 			"/>
		</g>
		<g>
			<polygon class="st14" points="902.45,260.33 905.29,122.63 923.27,122.63 919.48,260.33 912.86,260.33 908.6,262.7 			"/>
		</g>
		<g>
			<path class="st3" d="M733.75,127.84h34.31c0,0,3.9-30.17,65.36-30.52c61.46-0.35,65.36,30.52,65.36,30.52h31.23
				c0,0-8.87-45.78-98.13-46.14S733.75,127.84,733.75,127.84z"/>
		</g>
		<g>
			<polygon class="st15" points="745.82,260.33 747.31,260.53 763.3,260.36 763.14,248.48 745.56,251.77 			"/>
		</g>
		<g>
			<polygon class="st15" points="902.66,250.13 902.45,260.33 905.52,261.51 910.17,261.82 912.86,260.33 919.48,260.33 
				919.74,251.04 			"/>
		</g>
		<g>
			<path class="st16" d="M651.18,758.61c0,0-4.73-319.88,0-402.22c4.73-82.34,47.32-100.32,106-100.32c58.68,0,102.21,0,149.53,0
				s90.85,14.2,93.69,103.16c2.84,88.96,0,399.38,0,399.38H651.18z"/>
		</g>
		<g>
			<path class="st3" d="M650.45,701.66c0.4,34.51,0.73,56.94,0.73,56.94h110.96C740.4,698.2,661.63,700.96,650.45,701.66z"/>
		</g>
		<g>
			<path class="st3" d="M891.37,758.61h109.03c0,0,0.21-22.48,0.45-57.06C983.99,700.84,912,701.29,891.37,758.61z"/>
		</g>
		<g>
			<path class="st17" d="M831.47,266.48c-26.5,0-39.87,35.96-39.28,156.15c0.66,132.73-6.15,317.56,43.35,317.56
				c48.45,0,38.55-208.74,37.77-281.6C871.85,320.91,868.85,266.48,831.47,266.48z"/>
		</g>
		<g>
			<path class="st18" d="M838.58,739.91c44.99-8.61,35.5-210.01,34.74-281.31c-1.42-133.5-4.29-188.72-38.53-191.96
				c-24.6,2.61-36.99,40.22-36.41,156C799.02,552.47,792.53,732.14,838.58,739.91z"/>
		</g>
		<g>
			<path class="st17" d="M895.98,286.55c3.31-21.6,50.63-17.66,74.67,14.73c21.23,28.61,21.7,335.24,10.82,352.75
				c-15,24.13-81.53,65.39-90.11,51.11C885.4,695.2,891.37,316.64,895.98,286.55z"/>
		</g>
		<g>
			<path class="st18" d="M921.66,273.23c-9.81,0.88-17.02,5.35-18.24,13.32c-4.61,30.09-10.58,408.65-4.61,418.59
				c0.75,1.26,1.97,2.08,3.55,2.52c21.81-3.84,67.08-34.25,79.12-53.63c10.88-17.51,10.41-324.14-10.82-352.75
				C957.59,283.68,937.67,274.5,921.66,273.23z"/>
		</g>
		<g>
			<path class="st17" d="M758.69,286.55c-3.31-21.6-49.95-20.49-73.45,12.54c-26.96,37.9-24.59,329.38-7.78,353.52
				c16.24,23.31,77.28,66.81,85.85,52.52C769.27,695.2,763.3,316.64,758.69,286.55z"/>
		</g>
		<g>
			<path class="st18" d="M738.02,272.12c-15.52,1-34.38,9.53-46.78,26.97c-26.96,37.9-24.59,329.38-7.78,353.52
				c13.24,19.01,56.29,51.45,76.37,55.02c1.53-0.41,2.72-1.22,3.49-2.49c5.96-9.94,0-388.49-4.61-418.59
				C757.36,277.87,749.03,272.87,738.02,272.12z"/>
		</g>
	</g>
	<g>
		<path class="st19" d="M1004.36,478.54c2.41-1.41,4.91-2.86,7.47-4.34c-9.97-38.19-9-82.15-7.01-108.82l-4.35-4.44l-29.12,12.6
			L1004.36,478.54z"/>
	</g>
	<g>
		<path class="st2" d="M1151.34,910.88c0,0-39.18,11.38,94.82,28.38s309.29-54.24,248.84-74.25
			c-38.14-12.62-116.25-1.06-116.25-1.06l-142.97,26.93l-71.03,13.8L1151.34,910.88z"/>
	</g>
	<g>
		<g>
			<g>
				<path class="st4" d="M272.39,566.22c-24.59,6.41-53.71,28.5-42.47,67.11c11.24,38.61,80.14,76.67,80.14,76.67
					s41.18-66.75,32.15-105.94C333.18,564.88,296.98,559.81,272.39,566.22z M294.7,650.05c-17.79,4.88-36.17-5.59-41.05-23.38
					c-4.88-17.79,5.59-36.17,23.38-41.05c17.79-4.88,36.17,5.59,41.05,23.38C322.96,626.79,312.49,645.17,294.7,650.05z"/>
			</g>
		</g>
	</g>
	<g>
		<g>
			<path class="st18" d="M374.68,343.92c-1.98,20.37,23.19,51.35,23.19,51.35s32.27-23.74,35.4-43.96
				c3.13-20.22-13.02-29.46-25.84-31.07C394.6,318.61,376.66,323.55,374.68,343.92z M387.03,346.55
				c0.42-10.62,10.21-18.19,20.53-16.02c8.01,1.69,13.78,9.06,13.46,17.24c-0.42,10.62-10.21,18.19-20.53,16.02
				C392.47,362.11,386.71,354.74,387.03,346.55z"/>
		</g>
	</g>
	<g>
		<g>
			<polygon class="st20" points="1297.2,678.12 1345.29,614.86 1354.81,628.99 1372.84,589.68 1507.01,828.31 1404.15,798.18 
				1320.25,751.2 1292.2,727.86 			"/>
		</g>
		<g>
			<polygon class="st21" points="1309.82,661.52 1309.82,661.52 1331.7,693.93 1345.54,675.2 1353.43,684.87 1362.83,665.99 
				1375.22,696.73 1386.87,693.93 1389.5,710.67 1401.52,696.73 1408.66,710.67 1410.91,687.18 1429.9,703.76 1429.9,691.17 
				1372.84,589.68 1354.81,628.99 1345.29,614.86 			"/>
		</g>
		<g>
			<polygon class="st22" points="1049.16,849.47 1137.41,680.27 1168.97,714.35 1215.55,609.34 1253.23,662.77 1272.66,630.52 
				1283.93,659.08 1295.95,642.5 1404.15,798.18 			"/>
		</g>
		<g>
			<polygon class="st23" points="1110.97,730.96 1131.02,720.8 1137.79,734.16 1144.55,720.8 1155.45,729.83 1160.42,734.16 
				1173.67,703.76 1168.97,714.35 1147.93,691.63 1137.41,680.27 			"/>
		</g>
		<g>
			<polygon class="st24" points="1211.05,696.73 1215.55,703.76 1227.2,683.03 1235.74,696.73 1253.23,662.77 1253.23,662.77 
				1253.23,662.77 1215.55,609.34 1180.06,689.35 1184.75,703.76 1190.01,699.15 1199.4,706.06 			"/>
		</g>
		<g>
			<polygon class="st23" points="1246.74,719.42 1257.58,710.67 1261.39,734.16 1273.04,708.83 1285.06,724.52 1292.2,713.89 
				1314.36,712.51 1314.36,696.73 1321.88,709.29 1327,687.18 1295.95,642.5 1283.93,659.08 1272.66,630.52 1253.24,662.76 
				1253.23,662.77 1235.74,696.73 			"/>
		</g>
		<g>
			<g>
				<polygon class="st14" points="1146.43,766.55 1168.97,714.35 1161.29,706.06 				"/>
			</g>
		</g>
		<g>
			<g>
				<polygon class="st14" points="1213.05,740.76 1253.23,662.77 1246.13,652.7 				"/>
			</g>
		</g>
		<g>
			<g>
				<polygon class="st14" points="1309.82,661.52 1309.98,662.68 1404.15,798.18 1317.93,650.86 				"/>
			</g>
		</g>
		<g>
			<g>
				<polygon class="st14" points="1292.2,681.68 1289.2,651.82 1283.93,659.08 				"/>
			</g>
		</g>
	</g>
	<g>
		<g>
			<path class="st16" d="M1237.87,778.35c-53.15,4.64-200.11,30.23-192.49,92.26c6.76,55.03,157.13,68.38,211.93,56.74
				c54.8-11.64,83.37-15.63,131.38-21.94c48.01-6.3,130.31-33.34,119.21-74.51C1494.78,782.23,1310.13,772.05,1237.87,778.35z"/>
		</g>
		<g>
			<path class="st25" d="M1175.3,809.88c0,0-1.03,0.17-2.9,0.5c-13.49,2.41-37.96,0.95-68.19,22.24
				c-34.43,24.25-18.92,48.22,21.34,56.46s63.76,2.53,104.98,4.95c41.22,2.42,58.11,9.67,104.66-10.21c0,0,30.76,4.89,85.17-5.99
				c16.87-3.37,41.39-8.92,62.73-28.32c21.34-19.4-31.03-39.04-46.03-40.9c-14.99-1.87-49.82,9.48-49.82,9.48l-63.53-11.59
				l-95.05-8.87l-32.21,10.55L1175.3,809.88z"/>
		</g>
		<g>
			<path class="st26" d="M1450.93,836.87c0,0-31.04-60.78-42.03-95.05c0,0-27.8-21.34-76.95-29.42
				c-49.14-8.08-144.2,8.73-144.2,8.73s-40.09,58.2-39.44,118.98c0,0-5.17,39.44,91.17,43.32c96.35,3.88,111.87,1.11,160.36-13.58
				C1434.68,859.3,1450.93,836.87,1450.93,836.87z"/>
		</g>
		<g>
			<path class="st27" d="M1319.82,852.07c0,0,0.09-0.86,0.3-2.38c1.43-10.23,8.41-50.39,30.73-60.66
				c25.65-11.8,75.65-2.91,86.32,31.52c10.67,34.43-87.78,19.4-87.78,19.4l-29.49,11.26L1319.82,852.07z"/>
		</g>
		<g>
			<path class="st28" d="M1331.95,712.4c-49.14-8.08-144.2,8.73-144.2,8.73s-27.16,39.43-36.41,87.28l5.05,9.66l36.86,21.87
				l24.73-5.33c0,0-8.73-67.9,7.27-83.41c16-15.52,31.52-8.73,49.47,0c17.94,8.73,32.49,20.37,53.83,15.52
				c21.34-4.85,28.13-12.12,43.65-13.09c15.52-0.97,36.7-11.8,36.7-11.8S1381.09,720.48,1331.95,712.4z"/>
		</g>
		<g>
			<path class="st29" d="M1331.95,718.22c-13.44-2.19-52.86,3.39-49.95,12.61c2.91,9.21,32.01,13.58,49.95,9.21
				c17.94-4.36,52.7,2.42,46.96-4.85C1373.17,727.92,1352.8,721.61,1331.95,718.22z"/>
		</g>
		<g>
			<path class="st3" d="M1450.93,836.87c0,0-6.11-11.97-13.87-28.27c-9.88,4.87-22.44,10.25-37.21,14.86
				c-38.56,12.03-60.14,9.21-144.03-2.91c-51.82-7.49-83.65-19.42-100.77-27.79c-4.14,14.88-6.91,31.02-6.73,47.35
				c0,0-5.17,39.44,91.17,43.32c96.35,3.88,111.87,1.11,160.36-13.58C1434.68,859.3,1450.93,836.87,1450.93,836.87z"/>
		</g>
		<g>
			<path class="st30" d="M1324.34,829.61c0,0-7.39,20.86-7.61,55.2c34.3-0.98,51.86-5.49,83.11-14.96
				c34.84-10.55,51.08-32.98,51.08-32.98s-6.11-11.97-13.87-28.27c-9.88,4.87-22.44,10.25-37.21,14.86
				C1374.77,831.28,1356.87,832.82,1324.34,829.61z"/>
		</g>
	</g>
	<g>
		<path class="st0" d="M1159.51,574.51c-17.42-7.41-12.85-25.99,4.46-28.38c16-2.21,26.56,6.72,26.56,6.72s1.11-34.1,33.17-32.61
			c32.06,1.48,23.53,34.84,23.53,34.84s17.52-15.94,33.04-3.71c15.51,12.23-4.87,27.05-4.87,27.05s17.14-11.86,27.65-2.22
			c10.52,9.64-27,13.45-89.99,12.79C1123.57,588.06,1159.51,574.51,1159.51,574.51z"/>
	</g>
	<g>
		<path class="st0" d="M534.42,393.67c-21.32-9.07-15.73-31.81,5.46-34.74c19.58-2.71,32.51,8.23,32.51,8.23s1.36-41.73,40.6-39.92
			c39.24,1.81,28.8,42.64,28.8,42.64s21.45-19.51,40.44-4.54c18.99,14.97-5.96,33.11-5.96,33.11s20.97-14.52,33.85-2.72
			c12.87,11.79-33.05,16.46-110.14,15.66C490.42,410.25,534.42,393.67,534.42,393.67z"/>
	</g>
	<g>
		<path class="st0" d="M1347.44,508.17c9.38-3.99,6.92-13.99-2.4-15.28c-8.61-1.19-14.3,3.62-14.3,3.62s-0.6-18.36-17.86-17.56
			c-17.26,0.8-12.67,18.76-12.67,18.76s-9.43-8.58-17.79-2c-8.35,6.58,2.62,14.57,2.62,14.57s-9.23-6.38-14.89-1.2
			c-5.66,5.19,14.54,7.24,48.45,6.89C1366.8,515.47,1347.44,508.17,1347.44,508.17z"/>
	</g>
	<g>
		<path class="st0" d="M1656.29,554.91c21.32-9.07,15.73-31.81-5.46-34.73c-19.58-2.71-32.51,8.23-32.51,8.23
			s-1.36-41.73-40.6-39.92c-39.24,1.81-28.8,42.64-28.8,42.64s-21.45-19.51-40.44-4.54c-18.99,14.97,5.96,33.11,5.96,33.11
			s-20.97-14.52-33.85-2.72s33.05,16.46,110.14,15.66C1700.29,571.5,1656.29,554.91,1656.29,554.91z"/>
	</g>
	<g>
		<g>
			<polygon class="st31" points="979.49,484.38 900.49,411.48 918.82,401.29 1031.75,435.44 1045.48,444.73 1048.04,446.46 
				1017.63,468.75 991.54,497.47 			"/>
		</g>
		<g>
			<path class="st32" d="M990.79,496.65c0.69-0.24,1.43-0.51,2.21-0.78l24.64-27.12l14.05-10.3c-0.39-0.04-0.75-0.07-1.15-0.11
				c-36.38-2.93-62.63-27.34-78.07-46.89l-33.64-10.17l-18.33,10.19l79,72.9L990.79,496.65z"/>
		</g>
		<g>
			<path class="st33" d="M1240.62,250.86l71.8-29.08c0,0,23.95,4.05,27.21,35.49L1266,327.18l-17.78-43.07L1240.62,250.86z"/>
		</g>
		<g>
			<path class="st34" d="M1256.97,244.24l-16.35,6.62l6.62,28.96l59.64,1.55c0,0,3.22-0.28,8.2-0.79l18.38-17.45
				C1291.36,258.15,1268.26,249.75,1256.97,244.24z"/>
		</g>
		<g>
			<path class="st14" d="M1352.29,271.36l-341.52-70.47l-48.16,20.57l192.67,75.08l42.1,52.42c0,0,64.75-23.54,66.32-24.8
				c1.57-1.26,65.57-31.1,67.14-32.36C1332.42,290.53,1352.29,271.36,1352.29,271.36z"/>
		</g>
		<g>
			<path class="st35" d="M962.61,221.46l192.67,75.08l42.1,52.42c0,0,44.84-16.3,60.78-22.5l7.74-11.39l-92.2-32.54
				c0,0-126.69-36.02-166.56-80.1L962.61,221.46z"/>
		</g>
		<g>
			<path class="st36" d="M1581.49,245.51c0,0,35.91-0.38,40.68,21.66c4.77,22.04-165.27,101.04-298.83,148.15
				c-133.56,47.11-332.53,115.06-352.17,97.85c-19.64-17.21,65.84-90.49,165.43-148.43
				C1236.19,306.81,1523.27,193.96,1581.49,245.51z"/>
		</g>
		<g>
			<path class="st37" d="M1581.49,245.51c-8.49-7.52-21.88-11.52-38.81-12.72c-51.15,34.73-133.15,84.26-232.51,122.31
				c-127.08,48.67-165.31,32.62-163,3.68c-3.72,2.05-7.26,4.04-10.58,5.97c-26.86,15.63-52.69,32.37-75.71,48.83l2.83,26.28
				l57.03,10.34l98.55-25.66l179.41-70.64l190.05-58.79l27.9-38.12C1605.2,245.26,1581.49,245.51,1581.49,245.51z"/>
		</g>
		<g>
			<path class="st33" d="M1491.94,437.09l52.47-20.58c0,0,23.95,4.05,27.21,35.49l-73.64,69.92l-17.78-43.07L1491.94,437.09z"/>
		</g>
		<g>
			<path class="st34" d="M1509.42,430.23l-17.48,6.85l-11.73,41.76l17.78,43.07l37.66-35.76
				C1504.62,473.73,1506.53,444.2,1509.42,430.23z"/>
		</g>
		<g>
			<path class="st6" d="M1402.02,345.15c-260.82,111.06-316.68,88.19-325.43,78.63c-8.75-9.56,2.5-22.87,2.5-22.87l0,0
				c-72.15,48.94-123.62,98.52-107.92,112.27c19.64,17.21,218.61-50.74,352.17-97.85c133.56-47.11,303.6-126.11,298.83-148.15
				c-4.77-22.04-40.68-21.66-40.68-21.66S1613.22,255.22,1402.02,345.15z"/>
		</g>
		<g>
			<path class="st38" d="M988.28,515.75c15.35-0.92,39.24-5.97,68.24-13.68l4.64-4.93l-21.01-8.17l-42.12,14.75L988.28,515.75z"/>
		</g>
		<g>
			<path class="st14" d="M998.03,503.72c0,0,45.27-40.05,107.09-41.2l-9.55,21.72l18.05,104.03l-23.37,10.36L998.03,503.72z"/>
		</g>
		<g>
			<path class="st35" d="M1107.53,590.98c-54.04-42.18-61.11-98.27-61.97-115.53c-29.21,12.09-47.53,28.27-47.53,28.27l92.22,94.92
				L1107.53,590.98z"/>
		</g>
		<g>
			<path class="st38" d="M1004.36,478.54l18.57-20.23l-7.55-9.45c-23.62,20.14-40.08,37.99-45.28,50.35L1004.36,478.54z"/>
		</g>
		<g>
			<path class="st39" d="M1004.36,478.54l-33.01-105l29.12-12.6l78.33,79.82C1052.5,450.86,1025.31,466.28,1004.36,478.54z"/>
		</g>
		<g>
			<path class="st38" d="M1375.99,395.85l1.63-4.97V362.1l-191.66,100.42v0c47.19-15.6,95.5-32.42,137.38-47.19
				C1340.44,409.29,1358.14,402.74,1375.99,395.85z"/>
		</g>
		<g>
			<path class="st14" d="M1290.99,426.69l78.16,44.34l126.24,232.35l43.01-21.61l-46.25-334.67
				C1492.15,347.1,1389.54,318.91,1290.99,426.69z"/>
		</g>
		<g>
			<path class="st34" d="M1531.97,685l-138.39-231.88c-31.08-37.86-15.98-90.95-15.95-91.03c-27.34,12.3-57.17,32.37-86.63,64.59
				l78.16,44.34l126.24,232.35L1531.97,685z"/>
		</g>
	</g>
	<g>
		<path class="st0" d="M1732.02,757.85c-9.62-2.3-19.28-5.5-28.69-9.5l1.17-2.76c9.26,3.94,18.76,7.08,28.22,9.34L1732.02,757.85z"
			/>
	</g>
	<g>
		<path class="st0" d="M1676.56,734.34c-8.84-5.58-16.93-11.74-24.05-18.34l2.04-2.2c6.99,6.47,14.93,12.52,23.61,18L1676.56,734.34
			z"/>
	</g>
	<g>
		<path class="st0" d="M1632.09,693.76c-6.21-7.74-12.07-16.02-17.43-24.63l2.55-1.59c5.3,8.51,11.09,16.7,17.22,24.34
			L1632.09,693.76z"/>
	</g>
	<g>
		<path class="st0" d="M1600.22,642.64c-4.31-9.12-8.11-18.53-11.3-27.97l2.84-0.96c3.15,9.33,6.9,18.63,11.17,27.64L1600.22,642.64
			z"/>
	</g>
	<g>
		<path class="st0" d="M1581.05,585.56c-2.05-10.04-3.4-20.1-4.03-29.91l2.99-0.19c0.61,9.67,1.95,19.59,3.97,29.5L1581.05,585.56z"
			/>
	</g>
	<g>
		<path class="st0" d="M1580.42,525.74l-2.99-0.29c0.76-8.02,2.07-15.91,3.9-23.45c0.5-2.08,1.04-4.19,1.59-6.26l2.9,0.78
			c-0.55,2.05-1.08,4.13-1.58,6.19C1582.46,510.11,1581.17,517.86,1580.42,525.74z"/>
	</g>
	<g>
		<path class="st0" d="M1595.32,468.31l-2.78-1.14c3.89-9.46,8.41-18.55,13.43-27.02l2.58,1.53
			C1603.6,450.02,1599.15,458.98,1595.32,468.31z"/>
	</g>
	<g>
		<path class="st0" d="M1625.67,417.38l-2.3-1.92c6.52-7.82,13.67-15.05,21.26-21.49l1.94,2.29
			C1639.1,402.59,1632.08,409.69,1625.67,417.38z"/>
	</g>
	<g>
		<path class="st0" d="M1686.3,370.36c0,0,0.24-0.58,0.66-1.67l-0.96,0.2l-0.16,0.04c-0.27,0.09-6.66,2.18-16.43,7.68l1.47,2.61
			c8.93-5.03,15.08-7.17,15.81-7.42l3.28-0.67C1688.75,370.84,1687.52,370.58,1686.3,370.36z"/>
	</g>
	<g>
		<g>
			<path class="st6" d="M1671.83,610.34c-17.14-3.47-41.84,1.38-46.57,28.66c-4.73,27.28,26.37,71.67,26.37,71.67
				s45.67-28.83,51.93-55.8S1688.97,613.82,1671.83,610.34z M1660.26,668.94c-12.48-2.36-20.68-14.4-18.32-26.88
				c2.36-12.48,14.4-20.68,26.88-18.32c12.48,2.36,20.68,14.4,18.32,26.88C1684.78,663.1,1672.74,671.3,1660.26,668.94z"/>
		</g>
	</g>
</g>
</svg>
